<?xml version="1.0" encoding="utf-8"?>
<!-- Generator: Adobe Illustrator 25.4.1, SVG Export Plug-In . SVG Version: 6.00 Build 0)  -->
<svg version="1.1" id="Layer_1" xmlns="http://www.w3.org/2000/svg" xmlns:xlink="http://www.w3.org/1999/xlink" x="0px" y="0px"
	 viewBox="0 0 512 512" style="enable-background:new 0 0 512 512;" xml:space="preserve">
<style type="text/css">
	.st0{fill:#788B9C;}
	.st1{fill:#FFFFFF;}
</style>
<path class="st0" d="M0,0v133.9h133.9V0H0z M7.9,126V7.9H126V126H7.9z"/>
<path class="st1" d="M3.9,130v126h126V130H3.9z M126,252.1H7.9V133.9H126V252.1z"/>
<path class="st0" d="M126,133.9v118.2h3.9V133.9H126z M126,133.9v118.2h3.9V133.9H126z M126,133.9v118.2h3.9V133.9H126z M0,126
	v133.9h133.9V126H0z M126,252.1H7.9V133.9H126V252.1z M126,133.9v118.2h3.9V133.9H126z M126,133.9v118.2h3.9V133.9H126z M126,133.9
	v118.2h3.9V133.9H126z M126,133.9v118.2h3.9V133.9H126z M126,133.9v118.2h3.9V133.9H126z"/>
<path class="st1" d="M3.9,256v126h126V256H3.9z M126,378.1H7.9V259.9H126V378.1z"/>
<path class="st0" d="M126,259.9v118.2h7.9V259.9H126z M126,259.9v118.2h7.9V259.9H126z M126,259.9v118.2h7.9V259.9H126z M126,259.9
	v118.2h7.9V259.9H126z M0,252.1V386h133.9V252.1H0z M126,378.1H7.9V259.9H126V378.1z M126,259.9v118.2h7.9V259.9H126z M126,259.9
	v118.2h7.9V259.9H126z M126,259.9v118.2h7.9V259.9H126z M126,259.9v118.2h7.9V259.9H126z M126,259.9v118.2h7.9V259.9H126z"/>
<path class="st1" d="M3.9,382v126h126V382H3.9z M126,504.1H7.9V386H126V504.1z"/>
<path class="st0" d="M0,378.1V512h133.9V378.1H0z M126,504.1H7.9V386H126V504.1z"/>
<path class="st0" d="M133.9,126v7.9h118.2V126H133.9z M133.9,126v7.9h118.2V126H133.9z M133.9,126v7.9h118.2V126H133.9z M133.9,126
	v7.9h118.2V126H133.9z M133.9,126v7.9h118.2V126H133.9z M133.9,126v7.9h118.2V126H133.9z M133.9,126v7.9h118.2V126H133.9z
	 M133.9,126v7.9h118.2V126H133.9z M126,0v133.9h133.9V0H126z M133.9,126V7.9h118.2V126H133.9z M133.9,126v7.9h118.2V126H133.9z
	 M133.9,126v7.9h118.2V126H133.9z M133.9,126v7.9h118.2V126H133.9z M133.9,126v7.9h118.2V126H133.9z M133.9,126v7.9h118.2V126H133.9
	z M133.9,126v7.9h118.2V126H133.9z M133.9,126v7.9h118.2V126H133.9z M133.9,126v7.9h118.2V126H133.9z M133.9,126v7.9h118.2V126
	H133.9z"/>
<path class="st1" d="M130,130v126h126V130H130z M252.1,252.1H133.9V133.9h118.2V252.1z"/>
<path class="st0" d="M126,126v133.9h133.9V126H126z M252.1,252.1H133.9V133.9h118.2V252.1z M133.9,252.1v3.9h118.2v-3.9H133.9z"/>
<path class="st1" d="M130,256v126h126V256H130z M252.1,378.1H133.9V259.9h118.2V378.1z"/>
<path class="st0" d="M126,252.1V386h133.9V252.1H126z M252.1,378.1H133.9V259.9h118.2V378.1z"/>
<path class="st1" d="M130,382v126h126V382H130z M252.1,504.1H133.9V386h118.2V504.1z"/>
<path class="st0" d="M133.9,378.1v7.9h118.2v-7.9H133.9z M133.9,378.1v7.9h118.2v-7.9H133.9z M133.9,378.1v7.9h118.2v-7.9H133.9z
	 M133.9,378.1v7.9h118.2v-7.9H133.9z M133.9,378.1v7.9h118.2v-7.9H133.9z M133.9,378.1v7.9h118.2v-7.9H133.9z M133.9,378.1v7.9
	h118.2v-7.9H133.9z M126,378.1V512h133.9V378.1H126z M252.1,504.1H133.9V386h118.2V504.1z M133.9,378.1v7.9h118.2v-7.9H133.9z
	 M133.9,378.1v7.9h118.2v-7.9H133.9z M133.9,378.1v7.9h118.2v-7.9H133.9z M133.9,378.1v7.9h118.2v-7.9H133.9z M133.9,378.1v7.9
	h118.2v-7.9H133.9z M133.9,378.1v7.9h118.2v-7.9H133.9z M133.9,378.1v7.9h118.2v-7.9H133.9z M133.9,378.1v7.9h118.2v-7.9H133.9z
	 M133.9,378.1v7.9h118.2v-7.9H133.9z"/>
<g>
	<path class="st0" d="M259.9,126v7.9h118.2V126H259.9z M259.9,126v7.9h118.2V126H259.9z M259.9,126v7.9h118.2V126H259.9z M259.9,126
		v7.9h118.2V126H259.9z M259.9,126v7.9h118.2V126H259.9z M259.9,126v7.9h118.2V126H259.9z M259.9,126v7.9h118.2V126H259.9z
		 M259.9,126v7.9h118.2V126H259.9z M252.1,0v133.9H386V0H252.1z M259.9,7.9h118.2V126H259.9V7.9z M259.9,126v7.9h118.2V126H259.9z
		 M259.9,126v7.9h118.2V126H259.9z M259.9,126v7.9h118.2V126H259.9z M259.9,126v7.9h118.2V126H259.9z M259.9,126v7.9h118.2V126
		H259.9z M259.9,126v7.9h118.2V126H259.9z M259.9,126v7.9h118.2V126H259.9z M259.9,126v7.9h118.2V126H259.9z M259.9,126v7.9h118.2
		V126H259.9z"/>
</g>
<g>
	<path class="st1" d="M256,130v126h126V130H256z M378.1,252.1H259.9V133.9h118.2V252.1z"/>
	<path class="st0" d="M252.1,126v133.9H386V126H252.1z M378.1,252.1H259.9V133.9h118.2V252.1z"/>
</g>
<g>
	<path class="st1" d="M256,256v126h126V256H256z M378.1,378.1H259.9V259.9h118.2V378.1z"/>
	<path class="st0" d="M252.1,252.1V386H386V252.1H252.1z M378.1,378.1H259.9V259.9h118.2V378.1z"/>
</g>
<g>
	<path class="st1" d="M256,382v126h126V382H256z M378.1,504.1H259.9V386h118.2V504.1z"/>
	<path class="st0" d="M259.9,378.1v7.9h118.2v-7.9H259.9z M259.9,378.1v7.9h118.2v-7.9H259.9z M259.9,378.1v7.9h118.2v-7.9H259.9z
		 M259.9,378.1v7.9h118.2v-7.9H259.9z M259.9,378.1v7.9h118.2v-7.9H259.9z M259.9,378.1v7.9h118.2v-7.9H259.9z M259.9,378.1v7.9
		h118.2v-7.9H259.9z M252.1,378.1V512H386V378.1H252.1z M378.1,504.1H259.9V386h118.2V504.1z M259.9,378.1v7.9h118.2v-7.9H259.9z
		 M259.9,378.1v7.9h118.2v-7.9H259.9z M259.9,378.1v7.9h118.2v-7.9H259.9z M259.9,378.1v7.9h118.2v-7.9H259.9z M259.9,378.1v7.9
		h118.2v-7.9H259.9z M259.9,378.1v7.9h118.2v-7.9H259.9z M259.9,378.1v7.9h118.2v-7.9H259.9z M259.9,378.1v7.9h118.2v-7.9H259.9z"/>
</g>
<g>
	<path class="st1" d="M382,3.9v126h126V3.9H382z M386,126V7.9h118.2V126H386z"/>
	<path class="st0" d="M378.1,0v133.9H512V0H378.1z M504.1,126H386V7.9h118.2V126z"/>
</g>
<g>
	<path class="st1" d="M382,130v126h126V130H382z M504.1,252.1H386V133.9h118.2V252.1z"/>
	<path class="st0" d="M378.1,133.9v118.2h7.9V133.9H378.1z M378.1,133.9v118.2h7.9V133.9H378.1z M378.1,126v133.9H512V126H378.1z
		 M504.1,252.1H386V133.9h118.2V252.1z M378.1,133.9v118.2h7.9V133.9H378.1z M378.1,133.9v118.2h7.9V133.9H378.1z M378.1,133.9
		v118.2h7.9V133.9H378.1z"/>
</g>
<g>
	<path class="st1" d="M382,256v126h126V256H382z M504.1,378.1H386V259.9h118.2V378.1z"/>
	<path class="st0" d="M378.1,259.9v118.2h7.9V259.9H378.1z M378.1,259.9v118.2h7.9V259.9H378.1z M378.1,259.9v118.2h7.9V259.9H378.1
		z M378.1,259.9v118.2h7.9V259.9H378.1z M378.1,259.9v118.2h7.9V259.9H378.1z M378.1,259.9v118.2h7.9V259.9H378.1z M378.1,252.1V386
		H512V252.1H378.1z M504.1,378.1H386V259.9h118.2V378.1z M378.1,259.9v118.2h7.9V259.9H378.1z M378.1,259.9v118.2h7.9V259.9H378.1z
		 M378.1,259.9v118.2h7.9V259.9H378.1z M378.1,259.9v118.2h7.9V259.9H378.1z M378.1,259.9v118.2h7.9V259.9H378.1z M378.1,259.9
		v118.2h7.9V259.9H378.1z M378.1,259.9v118.2h7.9V259.9H378.1z"/>
</g>
<g>
	<path class="st1" d="M382,382v126h126V382H382z M504.1,504.1H386V386h118.2V504.1z"/>
	<path class="st0" d="M378.1,378.1V512H512V378.1H378.1z M504.1,504.1H386V386h118.2V504.1z"/>
</g>
</svg>
