<?xml version="1.0" encoding="utf-8"?>
<!-- Generator: Adobe Illustrator 25.4.1, SVG Export Plug-In . SVG Version: 6.00 Build 0)  -->
<svg version="1.1" id="Layer_1" xmlns="http://www.w3.org/2000/svg" xmlns:xlink="http://www.w3.org/1999/xlink" x="0px" y="0px"
	 viewBox="0 0 512 512" style="enable-background:new 0 0 512 512;" xml:space="preserve">
<style type="text/css">
	.st0{fill:#FFFFFF;}
</style>
<path class="st0" d="M256,48C141.3,48,48,141.3,48,256s93.3,208,208,208s208-93.3,208-208S370.7,48,256,48z M185.7,414.4
	c-39-17.4-70.4-48.7-87.8-87.6c-6.7-14.9,5.9-31.3,22.1-29.2l63.2,7.9c6.6,9.7,15.1,18,24.9,24.3l11,58.7
	C222.6,407.4,203.3,422.2,185.7,414.4z M208,256c0-26.5,21.5-48,48-48s48,21.5,48,48s-21.5,48-48,48S208,282.5,208,256z
	 M414.1,326.8c-17.5,38.9-48.9,70.3-87.8,87.6c-17.6,7.9-36.9-7-33.3-25.9l11-58.7c9.8-6.4,18.3-14.7,24.9-24.3l63.2-7.9
	C408.2,295.5,420.8,311.9,414.1,326.8z M410.1,233.5l-72.6-10.4C324.5,190.8,293,168,256,168s-68.5,22.8-81.6,55.1l-72.6,10.4
	c-9.1,1.3-16.8-7-14.8-15.9c2-8.8,4.7-17.3,8-25.6c0,0,0,0,0.1,0.1c17.4-16.9,32.4-15.6,52.9-36s20.3-40.5,36-52
	c21.5-9.6,48-16,72-16s50.5,6.4,72,16c15.7,11.5,15.5,31.5,36,52s35.5,19.1,52.9,36c0,0,0,0,0.1-0.1c3.3,8.2,6,16.8,8,25.6
	C427,226.5,419.2,234.8,410.1,233.5z"/>
</svg>
